/* XPM */
static char *paint[] = {
/* columns rows colors chars-per-pixel */
"48 48 51 1",
"  c black",
". c #310000",
"X c #313100",
"o c #313161",
"O c #316561",
"+ c #610000",
"@ c #613100",
"# c #610061",
"$ c #613161",
"% c #616561",
"& c #00319E",
"* c #31319E",
"= c #0031FF",
"- c #3131FF",
"; c #61319E",
": c #61659E",
"> c #619A9E",
", c #9E3100",
"< c #9E6561",
"1 c #CE3100",
"2 c #FF3100",
"3 c #CE0061",
"4 c #CE3161",
"5 c #FF0061",
"6 c #CE6561",
"7 c #9E009E",
"8 c #9E319E",
"9 c #9E00FF",
"0 c #9E659E",
"q c #CE319E",
"w c #CE31FF",
"e c #CE659E",
"r c #CE65FF",
"t c #9E9A61",
"y c #CE9A61",
"u c #FF9A61",
"i c #CECE00",
"p c #FFCE00",
"a c yellow",
"s c #CECE61",
"d c #FFCE61",
"f c #9E9A9E",
"g c #9ECE9E",
"h c #9ECEFF",
"j c #CE9A9E",
"k c #CE9AFF",
"l c #CECE9E",
"z c #FFCE9E",
"x c #CECEFF",
"c c gray100",
"v c None",
/* pixels */
"vvvvvvvvvvvvvvvvvvvvvvvvvvvvvftvvvvvvvvvvvvvvvvv",
"vvvvvvvvvvvvvvvfvvccccccccczlltyvvvvvvvvvvvvvvvv",
"vvvvvvvvvvvvvvvccccccczlllllslll<ttvfvvvvvvvvvvv",
"vvvvvvvvvvvccccccclllzlsjzddyyslyl%vvvvvvvvvvvvv",
"vvvvvvvvvccccczlllllsslzzzydyzuzjlf$vvvvvvvvvvvv",
"vvvvvvvcccczllzzdzddldzdzyy4zy4z6zzl%$vvvvvvvvvv",
"vvvvvvccczllzddddduddduzz64653634yyllXovvvvvvvvv",
"vvvvfcczllzdu62212261uzzy43555534yyylyXovvvvvvvv",
"vvvfcczszzddd22212211zuuy35555553zyzyllo vvvvvvv",
"vvfcczzszdzdd11222216ddyz355555564zyyyjy$ vvvvvv",
"vfcczszzzdddd21111116ddyz35555553zylssyy$ vvvvvv",
"vccczzzdddzdd11112222udyz555w5w53zyyyyyyy$ vvvvv",
"fcczlzdzdzddd11111221dduy43555553zyysyyytX Xvvvv",
"xcclsddzddddd11111221ddu466335554ejyyyyyyy  vvvv",
"cczdddiddddddy61i211yyudzy4zy4k4yjjjjy6jjyo  vvv",
"ccsddappaaddddddudzdddsszzyz4k34jrekr4ke;j$  vvv",
"clddaaaaaadpddszlsdyyssylljj463$k7o77777;jf  ov:",
"cddpaaaaaaaiddsysllysylly;6#3q##4;99w9w77k;%  fv",
"csdaaaaaaapiddulsssyslyy<,##343#k79999997kj@  vv",
"cdspaaaaaaadssssyssyzyy%@X#$34+#k7w99w997kf$  ov",
"cldaaaaaaadissydssysyy$%X..#+3+#k79w99w99r6<. Xv",
"csdpaaaaaaddssuussdss<@   ..#.##k79999998rytX  v",
"cldddaaaaadsssuussssy< X  ...#,@k77999998;jt%  v",
"clsdpssdsddsyljuysyyy@    ...#@Xe7;78887;eyt<  v",
"clldssddyydyslyjssyly@     ..$X.jjrejere;jy<%  %",
"clzydzsdyssslssyysyy<       .XXyyjyy;y66y66y<  %",
"ccyzdyzdzylyysyzsy<yjo    oX$X@666fflffff;yy<  %",
"cczlzyz6syssssstl$lxcl XfXX.@@6yy0*&--=--*yy<  %",
"ccclzssydsssyyllXlcxX ofXXX$6yyyyj&--====&fy<  %",
"fccjysydyysssyl$lcg  ofXXXyyyyyyyf=-=====-fy<  %",
"vfcczlsssssssl%xxho ogXX@yyyyyyyyf==-====-fy<  %",
"vvfcclyylyyzy$lcx  o>XXXyyyyyyyyyf=======&fy<  %",
"vvvfccclyllycl%go &goX@syyyyyy66yf-======-f<<  %",
"vvvvvfcccly@yzl$ olXX@yy,yyy6yyttf&-====--ft%  %",
"vvvvvv<ycc@yxzcX.f$o@yyyyyyyy6yyyf*=-&---&<<<  :",
"vvvvvvvv<@6zzyX,y@XXyyyyyy6yy<yy<<f%ff:f0y<<$  v",
"vvvvvvv<@yzzyX@y@@@ys6syyyyyyy<t<ytl%ty<6<<tX Xv",
"vvvvvv<@yzzyX@llyXyyyy<yyy6<y<o    tt,y<<6<<. ov",
"vvvvv<@yzz6X@tXlyyys<yyyy6ys<% $$o$ tyt<<<<%  %v",
"vvvvvXyzzyX,<%oo%ccyyyyyy6y6y oo::%<c<<<,t<$  %v",
"vvvvXyzzyX@tooovv%ccyyyyyyyyt $%::%%c06<t,to X%v",
"vv<@6zzy@@t$oOvvvvv<cl<yy<y<y $::::%c<t,t<%  %%v",
"v<@yzzy.@<ooovvvvvvv<cyt<tyyy o$%::%c<t<y<X X%%v",
"<@yzdy@@0ooo%vvvvvvv%<c<ly6%yy <0$%cc<<<<<  %vvv",
"@yzzyX@too%vvvvvvvvvv%%cX<<y<y,ccccc<<<<<  Xvvvv",
"ylzyX@tooO%vvvvvvvvvvv<fcottt<<y<<<<<<<<   vvvvv",
"zzyX@tX%ovvvvvvvvvvvvvv%%c$ot<<<<<<t<<    $vvvvv",
"zyX@to$ovvvvvvvvvvvvvvvvvocoo%           %vvvvvv"
};
